<svg width="1746" height="1000" viewBox="0 0 1746 1000" fill="none" xmlns="http://www.w3.org/2000/svg">
<rect width="1745.36" height="1000" fill="black"/>
<path d="M756.603 457.496V537.348L824.154 544.147L778.185 522.565L796.529 483.394L886.093 525.371V457.496H756.603ZM713.439 414.333H929.257V597.777L713.439 576.195V414.333ZM1123.49 537.348V414.333H1166.66V576.195L950.838 597.777V414.333H994.002V550.297L1123.49 537.348ZM1404.05 414.333V511.45L1386.14 513.177L1404.05 575.116V576.195L1188.24 597.777V414.333H1404.05ZM1341.9 517.385L1231.4 527.852V550.189L1347.94 538.427L1341.9 517.385ZM1360.89 457.496H1231.4V479.078H1360.89V457.496ZM1641.45 414.333V457.496H1468.8V479.078H1641.45V511.45L1468.8 527.852V550.297L1641.45 533.032V576.195L1425.64 597.777V414.333H1641.45Z" fill="white"/>
<path d="M752.073 715.411L766.879 715.834C766.879 717.526 767.273 718.992 768.063 720.233C768.909 721.418 769.924 722.01 771.109 722.01H791.413C793.443 722.01 795.163 721.502 796.573 720.487C798.04 719.415 798.773 718.146 798.773 716.68C798.773 715.326 798.265 714.17 797.25 713.211C796.235 712.253 794.994 711.773 793.528 711.773L766.879 710.843C761.803 710.843 758.052 709.63 755.627 707.205C753.258 704.723 752.073 701.508 752.073 697.56V689.016C752.073 685.97 753.512 683.376 756.388 681.232C759.264 679.089 762.761 678.018 766.879 678.018H800.296C803.51 678.018 806.246 679.089 808.502 681.232C810.758 683.376 811.886 685.97 811.886 689.016V694.261H797.081C797.081 692.682 796.601 691.413 795.643 690.454C794.684 689.495 793.189 689.016 791.159 689.016H770.855C769.783 689.016 768.853 689.467 768.063 690.369C767.273 691.272 766.879 692.371 766.879 693.669C766.879 695.304 767.02 696.489 767.302 697.222C767.64 697.899 768.542 698.237 770.009 698.237L798.773 699.252C803.285 699.252 806.866 700.408 809.517 702.721C812.224 704.977 813.578 709.066 813.578 714.988C813.578 722.038 812.055 726.804 809.01 729.285C805.964 731.767 801.367 733.008 795.22 733.008H766.879C762.818 733.008 759.321 731.936 756.388 729.793C753.512 727.593 752.073 724.999 752.073 722.01V715.411ZM961.665 733.008H944.829V692.823H921.903V678.018H984.507V692.823H961.665V733.008ZM1092.41 720.318V678.018H1107.21V712.45C1107.21 714.65 1108.03 716.511 1109.67 718.034C1111.3 719.556 1113.31 720.318 1115.67 720.318H1135.39C1137.75 720.318 1139.76 719.556 1141.39 718.034C1143.03 716.511 1143.85 714.65 1143.85 712.45V678.018H1158.65V720.318C1158.65 723.815 1157.21 726.804 1154.34 729.285C1151.46 731.767 1147.96 733.008 1143.85 733.008H1107.21C1103.21 733.008 1099.74 731.767 1096.81 729.285C1093.88 726.804 1092.41 723.815 1092.41 720.318ZM1336.52 697.899V712.704C1336.52 718.287 1335.08 723.081 1332.2 727.086C1329.33 731.034 1325.83 733.008 1321.71 733.008H1267.99V678.018H1321.71C1325.77 678.018 1329.24 679.992 1332.12 683.94C1335.05 687.831 1336.52 692.484 1336.52 697.899ZM1321.71 712.45V697.899C1321.71 696.207 1321.01 694.797 1319.6 693.669C1318.24 692.541 1316.55 691.977 1314.52 691.977H1282.8V719.049H1314.27C1316.3 719.049 1318.05 718.4 1319.51 717.103C1320.98 715.806 1321.71 714.255 1321.71 712.45ZM1446.68 733.008V678.018H1461.48V733.008H1446.68ZM1570.81 719.049V691.977C1570.81 688.085 1572.25 684.786 1575.12 682.078C1578 679.371 1581.49 678.018 1585.61 678.018H1626.22C1630.28 678.018 1633.75 679.399 1636.63 682.163C1639.56 684.87 1641.03 688.141 1641.03 691.977V718.795C1641.03 722.687 1639.56 726.042 1636.63 728.862C1633.75 731.626 1630.28 733.008 1626.22 733.008H1585.61C1581.61 733.008 1578.14 731.626 1575.21 728.862C1572.27 726.099 1570.81 722.828 1570.81 719.049ZM1591.96 719.049H1619.71C1621.45 719.049 1622.98 718.428 1624.27 717.188C1625.57 715.947 1626.22 714.452 1626.22 712.704V697.899C1626.22 696.207 1625.6 694.797 1624.36 693.669C1623.12 692.541 1621.57 691.977 1619.71 691.977H1591.96C1590.15 691.977 1588.63 692.569 1587.39 693.753C1586.2 694.881 1585.61 696.263 1585.61 697.899V712.704C1585.61 714.396 1586.2 715.89 1587.39 717.188C1588.63 718.428 1590.15 719.049 1591.96 719.049Z" fill="#B3B3B3"/>
<rect x="76.6387" y="251.42" width="27.6885" height="110.754" fill="#14CB72"/>
<rect x="215.082" y="223.732" width="27.6885" height="138.443" transform="rotate(90 215.082 223.732)" fill="#14CB72"/>
<rect width="27.6885" height="110.754" transform="matrix(1 0 0 -1 76.6387 749.814)" fill="#14CB72"/>
<rect width="27.6885" height="138.443" transform="matrix(-4.37114e-08 -1 -1 4.37114e-08 215.082 777.502)" fill="#14CB72"/>
<rect x="685.785" y="223.732" width="27.6885" height="110.754" transform="rotate(90 685.785 223.732)" fill="#14CB72"/>
<rect x="713.473" y="362.176" width="27.6885" height="138.443" transform="rotate(-180 713.473 362.176)" fill="#14CB72"/>
<rect width="27.6885" height="110.754" transform="matrix(-4.37115e-08 -1 -1 4.37113e-08 685.785 777.502)" fill="#14CB72"/>
<rect width="27.6885" height="138.443" transform="matrix(-1 8.74227e-08 8.74228e-08 1 713.473 639.059)" fill="#14CB72"/>
<path d="M284.91 500.827L125.092 404.394V271.494L395.055 434.377L665.018 271.494V404.394L505.2 500.827L665.018 597.531V730.431L395.055 567.277L125.092 730.431V597.531L284.91 500.827Z" fill="white"/>
<rect x="125.092" y="271.494" width="132.905" height="132.905" fill="white"/>
<rect x="125.092" y="597.527" width="132.905" height="132.905" fill="white"/>
<rect x="532.115" y="271.494" width="132.905" height="132.905" fill="white"/>
<rect x="532.115" y="597.527" width="132.905" height="132.905" fill="white"/>
</svg>
